<svg width="180" height="180" viewBox="0 0 180 180" fill="none" xmlns="http://www.w3.org/2000/svg">
  <!-- Abstract Blue Monogram Symbol -->
  <g>
    <!-- Top-Right: Vertical stem curving up and right, with horizontal bar -->
    <path d="M110 40 Q115 35 120 40 L120 50 L115 50 L115 45 L105 45 L105 50 L100 50 L100 40 Q105 35 110 40 Z" fill="#2563EB"/>
    <path d="M100 30 L120 30 L120 35 L100 35 Z" fill="#2563EB"/>
    
    <!-- Mid-Left: Horizontal bar with wing/leaf shape extending left -->
    <path d="M100 50 L100 70 Q95 75 85 80 Q75 85 70 90 Q65 95 70 100 Q75 95 80 90 Q85 85 90 85 Q95 85 100 80 Z" fill="#2563EB"/>
    <path d="M70 90 Q60 95 50 100 Q45 105 50 110 Q55 105 60 100 Q65 95 70 90 Z" fill="#2563EB"/>
    <path d="M50 100 Q40 105 30 110 Q25 115 30 120 Q35 115 40 110 Q45 105 50 100 Z" fill="#2563EB"/>
    
    <!-- Bottom-Right: Large elegant spiral (G-like) -->
    <path d="M100 80 Q120 80 140 100 Q145 110 140 120 Q130 130 120 125 Q110 120 105 110 Q100 100 100 90 Q100 85 105 80 Q110 75 115 80 Q120 85 120 90 Q125 95 130 90 Q135 85 130 80 Q125 75 120 80 Q115 85 110 80 Q105 75 100 80 Z" fill="#2563EB"/>
    <path d="M100 90 Q110 100 120 100 Q130 100 140 110 Q145 115 140 125 Q135 130 130 125 Q125 120 120 115 Q115 110 110 110 Q105 110 100 105 Z" fill="#2563EB"/>
    <path d="M140 110 Q150 120 150 130 Q145 140 135 135 Q130 130 125 125 Q120 120 115 120 Q110 120 105 115 Z" fill="#2563EB"/>
    <path d="M150 130 Q155 140 150 150 Q145 145 140 140 Q135 135 130 135 Q125 135 120 130 Z" fill="#2563EB"/>
  </g>
</svg>
