<svg width="32" height="32" viewBox="0 0 32 32" fill="none" xmlns="http://www.w3.org/2000/svg">
  <!-- Golden Yellow Six-Pointed Star for Light Mode -->
  <g transform="translate(16,16)">
    <path d="M0,-8 L4,-4 L0,0 L-4,-4 Z" fill="#FFD700" stroke="white" stroke-width="0.3"/>
    <path d="M4,-4 L8,0 L4,4 L0,0 Z" fill="#FFD700" stroke="white" stroke-width="0.3"/>
    <path d="M8,0 L4,4 L0,8 L4,4 Z" fill="#FFD700" stroke="white" stroke-width="0.3"/>
    <path d="M0,8 L-4,4 L0,0 L4,4 Z" fill="#FFD700" stroke="white" stroke-width="0.3"/>
    <path d="M-4,4 L-8,0 L-4,-4 L0,0 Z" fill="#FFD700" stroke="white" stroke-width="0.3"/>
    <path d="M-8,0 L-4,-4 L0,0 L-4,4 Z" fill="#FFD700" stroke="white" stroke-width="0.3"/>
    <polygon points="-2,-2 2,-2 2,2 -2,2" fill="white" transform="rotate(45)"/>
  </g>
</svg>
