<svg width="32" height="32" viewBox="0 0 32 32" fill="none" xmlns="http://www.w3.org/2000/svg">
  <!-- Circular Globe with Wavy Orange, White, and Dark Blue Stripes -->
  <circle cx="16" cy="16" r="16" fill="none"/>
  
  <!-- Top orange section -->
  <path d="M0 0 L32 0 L32 6 Q28 4 24 5 Q20 6 16 5 Q12 6 8 5 Q4 4 0 6 Z" fill="#FF6B35"/>
  
  <!-- First wavy white stripe (curves down left to right) -->
  <path d="M0 6 Q4 4 8 5.2 Q12 6.4 16 5.2 Q20 6.4 24 5.2 Q28 4 32 6 Q28 8 24 7 Q20 8 16 7 Q12 8 8 7 Q4 8 0 6 Z" fill="white" opacity="0.95"/>
  
  <!-- Second orange section -->
  <path d="M0 6 Q4 8 8 7 Q12 6 16 7 Q20 6 24 7 Q28 8 32 6 L32 10 Q28 12 24 11 Q20 10 16 11 Q12 10 8 11 Q4 12 0 10 Z" fill="#FF6B35"/>
  
  <!-- Second wavy white stripe -->
  <path d="M0 10 Q4 8 8 9.2 Q12 10.4 16 9.2 Q20 10.4 24 9.2 Q28 8 32 10 Q28 12 24 11 Q20 12 16 11 Q12 12 8 11 Q4 12 0 10 Z" fill="white" opacity="0.95"/>
  
  <!-- Third wavy white stripe (in blue area) -->
  <path d="M0 18 Q4 16 8 17.2 Q12 18.4 16 17.2 Q20 18.4 24 17.2 Q28 16 32 18 Q28 20 24 19 Q20 20 16 19 Q12 20 8 19 Q4 20 0 18 Z" fill="white" opacity="0.95"/>
  
  <!-- Dark blue sections -->
  <path d="M0 10 Q4 12 8 11 Q12 10 16 11 Q20 10 24 11 Q28 12 32 10 L32 18 Q28 20 24 19 Q20 20 16 19 Q12 20 8 19 Q4 20 0 18 Z" fill="#1E3A8A"/>
  <path d="M0 18 Q4 20 8 19 Q12 18 16 19 Q20 18 24 19 Q28 20 32 18 L32 32 L0 32 Z" fill="#1E3A8A"/>
</svg>
